<svg width="109" height="254" viewBox="0 0 109 254" fill="none" xmlns="http://www.w3.org/2000/svg">
<path d="M108.257 6.56633C108.257 2.95485 105.368 0.0218878 101.822 0.0218878H86.1284C84.4212 0.0218878 82.8234 0.700409 81.6195 1.90424C80.3719 3.15184 79.6934 4.81531 79.6934 6.61011L82.298 151.485C82.1886 153.499 80.6565 154.44 79.2775 154.44C78.6647 154.44 77.1544 154.243 76.5416 152.405L30.1614 4.57455C29.3077 1.83857 26.8563 0 24.0109 0H7.1573C3.63337 0.0218878 0.744185 2.95485 0.744185 6.54445L0 246.5C0 248.273 0.678521 249.937 1.92612 251.184C3.12995 252.388 4.74965 253.067 6.43501 253.067H22.1504C25.6744 253.067 28.5636 250.155 28.5854 246.478L24.1422 95.3869C24.4049 91.3815 27.4692 89.5648 30.227 89.5648C32.9849 89.5648 34.9767 91.1407 35.8303 93.6797L79.3432 248.317C80.1312 251.119 82.6701 253.067 85.5374 253.067H102.282C103.989 253.067 105.587 252.41 106.79 251.184C108.038 249.937 108.717 248.273 108.717 246.5L108.301 6.56633H108.257Z" fill="#FAE9D4"/>
</svg>
