<svg width="123" height="258" viewBox="0 0 123 258" fill="none" xmlns="http://www.w3.org/2000/svg">
<path d="M121.959 105.499C121.959 85.4061 122.002 67.9835 121.981 60.1914C121.893 18.8235 91.0313 0 62.4021 0C33.7728 0 4.8372 17.4227 0 56.3173C0 56.4267 0 56.5143 0 56.6237C0.153214 66.4732 0.109436 113.948 0.0656607 152.076C0.0656607 172.169 0.0218888 189.592 0.0437766 197.384C0.131328 238.752 30.9931 257.575 59.6223 257.575C87.2009 257.575 117.187 240.153 122.024 201.258C122.024 201.149 122.024 201.061 122.024 200.952C121.871 191.102 121.915 143.628 121.959 105.477V105.499ZM28.5417 110.708V61.5266C28.5417 43.4254 42.5498 28.5854 59.7536 28.4541H60.454C78.0299 28.5854 93.4389 44.1695 93.4389 61.7892V146.473C93.4389 146.626 93.4389 146.758 93.4827 146.911V196.093C93.4827 214.194 79.4745 229.034 62.2707 229.165H61.5703C43.9944 229.034 28.5854 213.45 28.5854 195.83V111.146C28.5854 110.993 28.5854 110.862 28.5417 110.708Z" fill="#FAE9D4"/>
</svg>
