<svg width="94" height="255" viewBox="0 0 94 255" fill="none" xmlns="http://www.w3.org/2000/svg">
<path d="M91.7654 2.01368C90.5397 0.722297 88.8981 0 87.1252 0H71.3441C68.039 0 65.2155 2.62653 64.931 5.99725L47.6615 211.742C47.574 212.596 47.2018 213.078 46.786 213.34C46.3701 213.078 45.998 212.596 45.9105 211.786L28.6191 5.99725C28.3346 2.62653 25.5329 0 22.206 0H6.42492C4.65201 0 3.01044 0.722297 1.78472 2.01368C0.559004 3.32694 -0.0976407 5.12174 0.0117982 6.93843C0.646544 17.751 2.85722 54.3036 4.12671 71.2228C7.84763 121.018 19.0542 227.502 21.2648 248.339C21.615 251.666 24.3729 254.161 27.6561 254.161H65.894C69.1772 254.161 71.9351 251.644 72.2853 248.339C74.4959 227.545 85.6806 121.324 89.4234 71.2228C90.6272 55.0915 92.7065 20.9028 93.5383 6.93843C93.6477 5.12174 92.9911 3.32694 91.7654 2.01368Z" fill="#FAE9D4"/>
</svg>
