<svg width="96" height="253" viewBox="0 0 96 253" fill="none" xmlns="http://www.w3.org/2000/svg">
<path d="M95.0149 231.266C94.9711 227.72 92.0819 224.809 88.5799 224.809H39.4637C37.7564 224.809 36.1367 224.131 34.911 222.905C33.6196 221.614 32.8973 219.863 32.8973 218.002L33.0287 97.5538C33.0287 93.811 35.9616 90.7686 39.5731 90.7467L87.77 90.5498C91.294 90.5498 94.1612 87.5949 94.1612 84.0053V68.6401C94.1612 65.0286 91.2721 62.0956 87.7044 62.0956L39.3542 62.2926C37.647 62.2926 36.0273 61.6141 34.7797 60.3665C33.4883 59.0751 32.766 57.3241 32.7879 55.4418L32.8755 36.5088C32.8755 32.766 35.8303 29.7236 39.4418 29.7236H87.9232C89.6305 29.7236 91.2283 29.0451 92.454 27.8194C93.7016 26.5718 94.3801 24.8864 94.3582 23.1135L94.205 6.47878C94.1831 2.91108 91.294 0 87.77 0H6.43501C2.88919 0 0 2.93296 0 6.54445V246.281C0 249.893 2.86732 252.826 6.41314 252.826H88.755C90.4622 252.826 92.0819 252.147 93.2857 250.922C94.5333 249.652 95.2118 247.989 95.1681 246.194L94.9492 231.244L95.0149 231.266Z" fill="#FAE9D4"/>
</svg>
