<svg width="106" height="253" viewBox="0 0 106 253" fill="none" xmlns="http://www.w3.org/2000/svg">
<path d="M90.4306 6.17235C90.2117 2.73597 87.4101 0.0437755 84.0174 0.0437755L52.6304 0L21.2433 0.0437755C17.8726 0.0437755 15.049 2.73597 14.8301 6.17235L0.0121233 245.997C-0.0973156 247.813 0.537425 249.608 1.78503 250.943C3.01074 252.235 4.65235 252.957 6.42526 252.957H22.0969C25.4676 252.957 28.2036 250.396 28.51 246.982C29.101 239.978 29.8451 224.809 30.7644 205.592C32.3404 172.87 34.5073 128.044 37.1119 103.617C38.5128 93.1325 46.1297 89.4116 52.2145 89.4116H53.1119C59.1967 89.4116 66.7917 93.1325 68.1926 103.573C70.8191 128.044 72.9641 172.87 74.54 205.592C75.4593 224.809 76.2035 239.978 76.7945 246.982C77.079 250.396 79.8369 252.957 83.2076 252.957H98.8793C100.652 252.957 102.294 252.235 103.519 250.943C104.767 249.63 105.402 247.835 105.292 245.997L90.4744 6.17235H90.4306ZM55.3444 58.9C54.5346 59.0532 53.6591 59.1408 52.6304 59.1408C51.6016 59.1408 50.7261 59.0751 49.9162 58.9C44.4662 57.8494 40.1106 53.3405 39.0818 47.7372C38.272 43.3816 39.3882 38.9821 42.1461 35.6771C44.7726 32.5252 48.603 30.7086 52.6304 30.7086C56.6796 30.7086 60.4881 32.5252 63.1146 35.6771C65.8506 38.9821 66.9669 43.3816 66.1789 47.7372C65.1502 53.3624 60.7945 57.8494 55.3444 58.9Z" fill="#FAE9D4"/>
</svg>
