<svg width="70" height="70" viewBox="0 0 70 70" fill="none" xmlns="http://www.w3.org/2000/svg">
<path d="M42.1615 69.8068L15.4558 70C15.4558 70 13.4299 66.5675 14.6189 66.5675C15.8078 66.5675 19.7796 66.7062 22.5575 66.7062C25.3354 66.7062 25.3354 66.3252 25.3354 62.8535V28.259C25.3354 24.2363 17.8855 24.5812 13.0242 23.3171C9.13514 22.3059 5.38713 24.658 3.49661 25.9605C0.834434 26.5351 0.0241034 24.5812 2.45492 22.0529C4.88574 19.5246 0.668994 20.713 0.0241034 17.3406C-0.45244 14.8485 6.30596 15.7553 5.37999 15.2956C4.45403 14.8359 2.02337 14.0314 3.49661 11.9388C5.2208 9.4898 11.4832 14.697 8.9368 11.9388C6.3904 9.18057 8.01137 8.14607 10.673 8.14607C14.0431 8.14607 18.6232 15.2821 17.813 11.6043C17.0027 7.92649 13.5304 10.3398 13.4146 6.54731C13.3301 3.77799 17.9221 4.62798 20.0736 6.10825C18.8733 5.11888 17.3344 3.64852 17.813 2.06477C18.3685 0.22595 23.8447 1.37255 25.3526 3.66359C24.9757 2.62033 25.8553 0 27.6145 0C30.1873 8.16062e-09 30.0021 2.06477 30.939 3.66359C31.0162 2.62918 34.1711 0.53739 36.3008 0.445445C38.9629 0.330513 36.3593 5.47063 37.374 4.60698C38.1843 3.91739 39.3456 2.60513 41.2779 2.97394C42.6939 3.24421 42.1267 5.25828 41.2779 6.44589C41.8952 6.21602 42.9446 5.87017 44.5187 5.96212C46.4864 6.07705 47.1432 10.4685 43.1298 10.4685C40.8991 10.4685 37.865 14.2234 38.3842 14.697C40.055 16.2211 42.0656 10.0524 43.6992 11.9786C45.7097 14.3494 46.3707 9.10875 49.3801 9.10875C51.7876 9.10875 50.3832 13.088 49.3801 14.697C50.4989 14.0841 53.5321 13.2259 54.7359 14.697C56.2406 16.5359 49.0328 19.2945 51.9265 19.1796C54.8201 19.0647 57.7137 18.7199 57.0193 22.0529C56.3248 25.3859 50.6848 22.6275 51.7265 23.3171C52.7682 24.0067 52.9997 27.272 52.3052 28.4214C51.6107 29.5707 48.7171 27.2485 46.4022 25.1797C44.0873 23.111 42.2948 24.1454 37.865 24.5812C35.3617 24.8275 31.956 27.3104 31.493 28.4214C31.493 39.3782 31.8402 61.7271 31.8402 64.1177C31.8402 66.5082 33.352 66.4142 34.5866 66.5675C37.3259 66.4908 42.2589 66.3836 43.0923 66.5675C43.9257 66.7513 42.856 69.2705 42.1615 69.8068Z" fill="#1A3FA3"/>
<path d="M39.2008 39.607C36.443 36.4694 32.0889 40.2607 30.2565 42.5485C28.3931 42.9297 27.0118 42.6567 31.484 36.9044C37.0742 29.7141 41.9959 35.3578 44.0457 36.5018C45.6854 37.4169 44.7289 40.9142 44.0457 42.5485C43.5798 42.8754 41.9586 42.7446 39.2008 39.607Z" fill="#1A3FA3"/>
<path d="M16.4005 39.1885C19.1583 36.0509 23.5124 39.8422 25.3448 42.1301C27.2082 42.5113 29.4675 42.4879 24.9954 36.7356C19.4052 29.5452 13.6054 34.9394 11.5556 36.0833C9.91585 36.9984 10.8724 40.4958 11.5556 42.1301C12.0215 42.4569 13.6426 42.3262 16.4005 39.1885Z" fill="#1A3FA3"/>
<path d="M39.2733 53.3882C36.9117 50.7014 33.1832 53.9479 31.6141 55.907C30.0185 56.2335 27.7846 56.0562 31.6142 51.1304C36.4011 44.9732 41.6668 49.7495 43.422 50.7291C44.8262 51.5127 44.0071 54.5076 43.422 55.907C43.0231 56.1869 41.6348 56.0749 39.2733 53.3882Z" fill="#1A3FA3"/>
<path d="M18.3391 53.6658C20.7007 50.979 24.4292 54.2256 25.9983 56.1847C27.5939 56.5111 29.8278 55.9325 25.9983 51.0068C21.2113 44.8495 15.9456 50.0272 14.1904 51.0068C12.7863 51.7904 13.6054 54.7852 14.1904 56.1847C14.5893 56.4646 15.9776 56.3526 18.3391 53.6658Z" fill="#1A3FA3"/>
</svg>
