<svg width="70" height="71" viewBox="0 0 70 71" fill="none" xmlns="http://www.w3.org/2000/svg">
<path d="M16.4413 25.3462C14.1912 23.469 13.2469 20.6383 12.954 18.1177C12.7939 16.7356 12.7025 15.1955 12.6553 13.8135C12.5993 12.1643 12.8381 10.2523 12.6631 8.65382C12.5934 8.01478 12.2553 7.69442 11.5585 7.49239C10.3979 7.15597 7.17242 7.24979 6.88938 8.59211C6.63878 9.78143 6.91395 11.9513 6.96899 13.215C7.23728 19.3518 7.42303 26.3609 13.9044 30.1402C19.9101 33.6422 21.5826 32.9423 28.6733 33.3667C29.4978 33.4157 31.5282 33.5704 31.8722 34.3311C31.9744 34.5568 32.0461 35.2381 32.0658 35.5162C32.3144 39.0833 32.1444 45.6448 31.9597 49.2288C31.9321 49.7715 32.1041 51.5212 31.4712 51.7646C30.8383 52.0081 30.6079 51.9937 29.6669 51.7646C28.9989 51.5283 27.7502 50.8171 27.1321 50.408C25.0545 49.0327 24.8422 44.7403 24.7636 42.6474C24.7027 41.0253 24.9995 38.874 24.742 37.344C24.3204 34.8377 19.0645 34.7668 18.7746 37.6568C18.5957 39.448 18.8385 41.36 18.8807 43.1469C18.9181 44.7107 18.921 46.2754 18.9741 47.8383C16.1034 47.0919 14.931 44.5222 14.3895 42.196C13.6033 38.8208 13.79 38.6424 13.6269 35.2105C13.0264 33.6239 8.72578 34.0415 7.99165 35.1818C7.65653 35.7033 7.76365 37.3753 7.77839 38.0465C7.88945 43.0734 8.71989 47.0767 12.7345 50.9701C18.7569 56.795 24.0827 56.761 25.9235 56.9657C27.4438 57.013 30.2261 56.8364 31.371 57.8541C31.4329 57.909 31.7641 58.33 31.7641 58.3604V70.37C33.8731 70.0682 36.0028 69.829 38.1462 69.7792L38.043 66.3608C38.2965 63.1977 37.7197 61.898 38.043 58.7789C38.1963 57.3064 39.6669 57.138 41.7243 56.761C43.7816 56.384 40.3794 56.9319 46.9148 55.6572C57.2948 53.6327 60.7158 48.9093 61.9236 40.1022C62.2273 37.8876 62.1477 37.7785 61.9236 35.5909C61.7123 33.5301 56.4329 33.4101 56.0516 35.022C55.9562 38.322 56.4958 38.6077 55.8177 41.8596C55.3312 44.1917 54.1519 47.2043 51.1368 47.7571C51.179 46.7293 51.1928 45.6989 51.2301 44.6701C51.3107 42.442 51.5279 39.8757 51.3363 37.6585C51.1004 34.9316 46.1639 34.7684 45.4681 37.0938C45.4102 37.2899 45.3571 37.6204 45.3394 37.8275C45.0633 41.0126 46.1354 48.0183 43.1311 50.2879C42.1651 51.0177 42.1217 51.0107 40.9461 51.7646L39.8139 51.9859C39.0791 51.9859 39.1095 51.9681 38.4125 51.7934C38.0204 51.6945 37.8848 50.9777 37.8533 50.6692C37.4917 47.1671 37.6214 40.8204 37.758 37.2989C37.7924 36.4114 37.6509 35.3759 37.8592 34.5137C38.0912 33.5526 40.0134 33.4402 40.9461 33.3684C50.4033 32.6423 55.747 34.5019 60.9705 25.8216C62.9507 22.5318 63.2456 17.3189 63.4038 13.6393C63.4126 13.4398 63.503 13.2547 63.5099 13.0552C63.3045 11.7205 63.7812 9.76622 63.4834 8.50928C63.3173 7.80853 62.083 7.48225 61.3695 7.37152C60.2688 7.20077 57.9426 7.20415 57.806 8.48645C57.349 12.7738 58.6164 20.948 54.6228 24.6695C54.5245 24.7439 52.5914 26.7284 52.5914 26.7284L51.5627 27.6081L50.5258 28.0894C50.1507 28.3306 49.6579 28.4462 49.0478 28.3828L49.1421 19.9739C49.3406 18.8632 49.2158 17.7204 49.2404 16.5953C49.262 15.5776 49.55 13.8616 49.32 12.9014C48.8817 11.0747 44.2322 11.0798 43.9433 13.559C43.5393 17.0205 44.2863 21.1091 44.1428 24.6205C43.8843 26.087 44.1428 29.2078 39.2528 29.2078C38.3879 29.3363 38.0292 29.1918 37.9467 28.4285C37.7737 26.8275 38.101 24.508 38.2464 22.8504C38.615 18.6603 39.127 14.4466 39.6213 10.2641C39.9918 7.13906 40.4557 4.01572 40.8753 0.895764C40.8262 0.668381 39.8886 0.439308 39.6213 0.379293C37.4641 -0.104212 31.1695 -0.237767 29.2433 0.658238C29.1421 0.705574 28.9779 0.774888 28.9583 0.882239C29.1804 2.65819 29.4831 4.4333 29.7042 6.20925C30.4983 12.5937 31.5626 19.5141 31.8633 25.8918C31.8977 26.6263 31.9675 27.8968 31.8555 28.5866C31.6668 29.7454 26.8541 29.1681 26.4403 28.4158C26.1229 27.8385 26.3322 27.6703 26.3352 27.1614C26.3489 25.0194 26.3096 22.8766 26.3273 20.7347C26.346 18.4786 26.6899 15.6925 26.4285 13.4745C26.1995 11.532 22.6989 10.9133 21.4233 12.3756C20.7157 13.1879 21.1108 14.4829 21.1324 15.4127C21.1894 17.832 21.1658 20.2706 21.3289 22.6772L21.325 28.3828C20.6965 28.4244 20.2213 28.3141 19.8679 28.0934L18.0577 26.8541L16.4413 25.3462Z" fill="#1A3FA3"/>
</svg>
