<svg width="70" height="70" viewBox="0 0 70 70" fill="none" xmlns="http://www.w3.org/2000/svg">
<path d="M28.5897 47.8975C30.8867 45.883 29.6162 41.8439 28.6938 40.0762C26.7137 36.8729 22.6242 30.1583 22.1071 28.9259C21.4609 27.3854 22.3468 25.0487 22.5318 24.6361C22.7167 24.2235 22.9742 23.468 22.5209 22.8528C22.0675 22.2376 19.8165 21.8372 18.9541 21.7728C18.0916 21.7085 16.0776 23.3992 15.1837 24.398C14.2898 25.3969 15.2568 30.469 14.8479 31.0201C14.4391 31.5712 13.3133 31.3707 12.4845 30.6885C11.6557 30.0062 8.61831 29.6438 6.78141 29.5843C4.94451 29.5247 2.89661 31.8329 2.86542 32.8964C2.83423 33.9599 5.97906 33.3615 7.77941 33.5926C9.21968 33.7776 8.88327 34.3533 8.53503 34.618C6.96204 34.8431 3.53155 35.3495 2.39346 35.5747C0.970844 35.8561 -0.107763 37.2677 0.387313 38.603C0.88239 39.9383 6.2424 39.9118 7.85261 39.6637C9.14078 39.4653 10.9199 40.8037 11.6485 41.4977C13.9501 44.1047 18.9066 49.4886 20.3198 50.1677C22.0864 51.0166 25.7185 50.4156 28.5897 47.8975Z" fill="#1A3FA3"/>
<path d="M41.6075 47.9107C39.3105 45.8962 40.5811 41.8571 41.5035 40.0894C43.4836 36.8861 47.5731 30.1715 48.0901 28.9391C48.7364 27.3986 47.8504 25.0619 47.6655 24.6493C47.4806 24.2367 47.223 23.4811 47.6764 22.8659C48.1298 22.2507 50.3808 21.8504 51.2432 21.786C52.1056 21.7217 54.1197 23.4123 55.0136 24.4112C55.9074 25.4101 54.9405 30.4822 55.3493 31.0333C55.7582 31.5844 56.884 31.3839 57.7128 30.7017C58.5415 30.0194 61.579 29.657 63.4159 29.5974C65.2528 29.5379 67.3007 31.8461 67.3318 32.9096C67.363 33.9731 64.2182 33.3747 62.4179 33.6058C60.9776 33.7908 61.314 34.3664 61.6622 34.6312C63.2352 34.8563 66.6657 35.3627 67.8038 35.5878C69.2264 35.8692 70.305 37.2809 69.81 38.6162C69.3149 39.9515 63.9549 39.9249 62.3447 39.6769C61.0565 39.4785 59.2773 40.8169 58.5488 41.5108C56.2472 44.1179 51.2907 49.5018 49.8774 50.1809C48.1109 51.0297 44.4788 50.4288 41.6075 47.9107Z" fill="#1A3FA3"/>
<path d="M43.5606 19.3538C44.3898 18.4134 44.9032 17.8697 45.9102 17.1277L47.4207 16.262L51.2906 12.0082C52.6332 11.2662 53.8416 9.51001 47.934 8.42168C40.5495 7.06126 35.8503 13.3687 34.0042 13.4923C32.1581 13.616 32.3259 12.2556 28.4658 8.42168C24.6057 4.58777 18.3959 8.42168 17.3889 9.7821C16.382 11.1425 19.9064 12.7503 21.7525 13.987C23.5986 15.2238 24.438 19.9234 23.7667 24.7467C23.0954 29.57 25.445 31.7962 27.459 33.7749C29.4729 35.7537 35.5148 34.7643 38.3679 33.7749C41.2209 32.7856 41.6674 21.5012 43.5606 19.3538Z" fill="#1A3FA3"/>
<path d="M37.7667 8.47023C38.3073 7.18401 39.7938 8.34655 41.1525 6.69065C41.2803 3.64692 39.5886 0.255686 35.2065 0.0122255C29.3954 -0.310636 28.2565 5.85795 29.3957 6.31962C31.9558 7.35716 32.5999 11.6782 33.4498 11.7613C35.2066 11.9331 37.091 10.078 37.7667 8.47023Z" fill="#1A3FA3"/>
<path d="M13.3285 27.6308C13.2368 27.3294 13.3042 25.6071 13.3493 24.7837C13.5977 24.5309 13.9803 23.7378 13.5238 22.5875C12.9532 21.1496 9.34189 18.9035 5.9808 20.9781C2.6197 23.0527 4.78238 27.5356 5.16019 28.0482C5.538 28.5609 8.04712 28.2056 8.68287 27.9623C9.31861 27.7191 12.7006 29.2118 13.1123 29.1068C13.524 29.0019 13.4432 28.0076 13.3285 27.6308Z" fill="#1A3FA3"/>
<path d="M56.8678 27.6439C56.9595 27.3425 56.8921 25.6202 56.847 24.7967C56.5986 24.544 56.2159 23.7509 56.6725 22.6006C57.2431 21.1627 60.8544 18.9165 64.2155 20.9911C67.5766 23.0657 65.4139 27.5486 65.0361 28.0613C64.6583 28.574 62.1492 28.2186 61.5134 27.9754C60.8777 27.7322 57.4957 29.2248 57.084 29.1199C56.6723 29.015 56.7531 28.0206 56.8678 27.6439Z" fill="#1A3FA3"/>
<path d="M36.2842 50.262C36.2842 47.2826 37.0652 37.8467 37.0652 33.7501H30.8726L32.8976 50.6344L32.1719 69.5036C32.6557 70.0001 34.9295 70.0001 36.2842 70.0001C37.6388 70.0001 38.7032 69.7518 38.9451 69.5036C38.0581 64.3311 36.2842 53.2413 36.2842 50.262Z" fill="#1A3FA3"/>
<path d="M37.25 60.0002C37.5 55.5 42.5005 50.2868 45.125 47.875L43.5 45.625C41.625 46 40.5 46.75 38.75 49.25C36.977 51.7829 36.0974 53.4172 35.625 55.2502C35.9399 57.4691 37.0445 63.6991 37.25 60.0002Z" fill="#1A3FA3"/>
<path d="M33.0404 58.6032C32.6667 54.9175 26.7296 50.1348 23.8752 48L26.1252 43.75C26.9864 44.4384 27.9463 45.9494 29.7502 47.9998C31.5109 50.0009 33.4894 51.9934 34.1443 53.7694C34.0548 56.0087 33.4141 62.2889 33.0404 58.6032Z" fill="#1A3FA3"/>
</svg>
