<svg width="70" height="71" viewBox="0 0 70 71" fill="none" xmlns="http://www.w3.org/2000/svg">
<path d="M18.9487 66.911L26.4921 53.9799C38.1896 53.9799 41.5789 46.4848 41.5789 43.2727C41.5789 40.0605 44.9029 37.3192 46.061 36.2718C49.3652 33.2833 51.0886 29.1912 51.0886 26.0713C51.0886 23.9298 52.9983 20.4082 55.1848 19.2551C57.3712 18.102 58.0272 16.29 58.1365 16.29C58.2458 16.29 58.4645 10.8541 59.7763 9.78333C61.0882 8.7126 59.7763 5.99461 55.95 4.92388C52.1237 3.85316 50.9212 6.65351 51.0306 9.78333C51.1399 12.9131 48.0562 15.9326 46.8169 16.9258C43.306 19.7396 43.1105 20.7273 43.144 21.4857L43.1466 21.543C43.2574 24.0367 43.4881 29.2285 35.7848 35.2834C34.0539 36.6439 33.9992 39.1545 34.3636 40.3899C34.2178 43.355 32.8986 48.7251 28.7879 46.4848C23.6895 43.7063 27.2018 38.9817 28.7517 36.8969L28.7879 36.8483C30.3182 34.7892 28.7879 32.0712 29.3347 30.7534C29.8815 29.4356 33.3795 26.8 34.9102 25.3998C36.4409 23.9996 35.7848 20.3756 35.7848 18.9754C35.7848 17.5752 39.2832 15.1867 41.5789 13.5394C43.8748 11.8922 43.8747 10.3273 43.7654 8.92708C43.6561 7.5269 45.0771 5.87963 46.061 3.98527C47.0449 2.09091 45.1864 1.18491 42.4533 0.278915C39.7202 -0.627084 36.7685 0.690734 36.7685 3.98527C36.7685 6.6209 34.5091 9.75072 33.3795 10.9862C31.8489 12.2765 28.7879 15.3844 28.7879 17.4929C28.7879 20.1285 25.3988 24.2467 23.103 25.3998C20.8072 26.5529 20.9165 28.859 20.9165 30.7534C20.9165 32.6478 19.9326 34.1303 18.0741 35.8599C16.2156 37.5896 16.1063 43.2727 18.0741 46.4848C19.6484 49.0546 18.7301 50.5206 18.0741 50.9325L12.0613 60.6513L9.00024 66.1697C9.29177 67.5699 10.5964 70.3702 13.4825 70.3702C16.3687 70.3702 18.3292 68.0641 18.9487 66.911Z" fill="#1A3FA3"/>
</svg>
