<svg width="70" height="70" viewBox="0 0 70 70" fill="none" xmlns="http://www.w3.org/2000/svg">
<path d="M32.8276 16.1143C35.3409 17.6907 37.8891 15.4574 38.849 14.1438C39.4162 13.4869 41.6239 12.2783 45.9174 12.6986C51.2843 13.224 55.6041 17.1651 57.3058 22.4199C59.0075 27.6746 56.2585 34.7685 54.4259 37.2644C52.5933 39.7604 52.4625 43.8328 52.3316 50.9267C52.2006 58.0206 47.9304 61.0775 45.9174 62.8812C43.1542 65.3571 41.656 63.1635 41.656 62.2524C41.656 61.3414 44.4206 58.3569 43.7923 55.2154C42.2844 52.8278 40.5595 49.5605 44.0848 44.6211C48.4915 38.4468 48.4045 35.5567 48.5354 28.0687C48.6402 22.0783 43.5176 19.3547 40.9432 18.7416C39.1543 18.7416 36.5712 19.2934 40.5505 21.5003C45.5247 24.2589 45.5247 28.2001 45.9174 32.5352C46.3101 36.8703 43.0233 40.1344 40.798 44.4696C38.5727 48.8047 39.3581 52.109 40.5362 56.1814C41.6682 60.0944 39.6199 64.963 35.8238 67.9845C32.0277 71.0059 22.6425 67.5095 24.5661 66.2735C26.9534 64.7396 30.9717 63.0646 30.4722 60.3674C29.8439 56.9746 25.7813 56.2022 24.5661 51.4455C23.1483 45.8955 30.3465 43.0262 27.3307 37.7484C23.2873 30.6726 23.5335 27.5432 25.1043 25.0472C26.6751 22.5512 30.6021 21.2376 30.733 20.4493C30.8639 19.6611 29.5549 18.7416 27.4605 19.7925C25.3661 20.8434 22.4863 23.0767 21.0464 26.0982C19.6065 29.1196 20.9155 33.192 22.0936 35.5567C23.2717 37.9213 25.1642 41.2372 22.9325 46.0421C21.0222 50.1551 22.7493 56.1499 25.7652 57.4424C26.806 57.8885 27.9781 60.3816 27.5244 60.8353C26.7705 61.5892 25.7588 61.8467 21.8318 59.6135C17.9048 57.3802 13.7162 52.109 13.7162 50.0071C13.7162 47.9053 14.7634 40.2859 13.7162 35.688C12.669 31.0901 10.4437 25.0473 13.7162 18.7416C16.9887 12.436 23.2719 11.9105 26.6753 12.1732C30.0787 12.436 29.686 14.1438 32.8276 16.1143Z" fill="#1A3FA3"/>
<path d="M52.4629 7.46365C54.8634 6.96715 54.4735 4.32261 52.4629 3.06599C42.163 -4.35644 34.3311 3.51714 32.1058 7.58955C29.8805 11.662 31.378 13.7185 33.8651 14.3753C36.3522 15.032 38.4104 12.9182 39.0172 8.59484C40.0225 1.43215 44.0162 2.50697 46.5568 3.19117C49.824 4.07103 50.5575 7.85776 52.4629 7.46365Z" fill="#1A3FA3"/>
</svg>
