<svg width="76" height="70" viewBox="0 0 76 70" fill="none" xmlns="http://www.w3.org/2000/svg">
<path d="M39.2535 17.8989H28.562L28.2358 19.2592L27.5094 23.8874L27.3097 25.3163C27.3097 25.3163 22.0502 25.3163 21.5343 25.3163L21.4189 26.5447V31.535C21.4602 31.9701 21.4437 32.8402 21.0474 32.8402H16.7009L16.2059 32.9975C16.2059 32.9975 15.9579 37.7583 15.9579 38.9054C15.9579 39.3905 15.7651 40.2067 15.7651 40.2067L12.3097 40.7508C12.3097 40.7508 12.3046 45.2009 12.3046 46.7364C12.3046 47.6879 9.72119 47.5519 9.17272 47.6879C8.95758 47.7413 8.29516 47.96 8.1531 47.96L8.08191 53.9707C8.08296 54.329 5.99909 55.0456 5.5533 55.0456C4.99607 55.0456 4.29127 55.3052 4.29127 55.3052C4.29127 55.3052 4.06735 59.9848 4.06735 61.4947C4.08798 61.8273 3.74279 62.9225 3.74279 62.9225C3.74279 62.9225 0.106032 62.9875 0.058608 63.207C-0.0475681 63.6983 0.0144157 68.311 0.0586558 70H39.2536L39.2535 17.8989Z" fill="#1A3FA3"/>
<path d="M35.7182 17.8989H46.471L46.799 19.2591L47.5296 23.8873L47.7304 25.3163C47.7304 25.3163 53.02 25.3163 53.5389 25.3163L53.6549 26.5447V31.535C53.6134 31.9701 53.63 32.8402 54.0286 32.8402H58.4L58.8978 32.9974C58.8978 32.9974 59.1472 37.7582 59.1472 38.9054C59.1472 39.3905 59.3412 40.2067 59.3412 40.2067L62.8164 40.7507C62.8164 40.7507 62.8214 45.2009 62.8214 46.7364C62.8214 47.6879 65.4197 47.5519 65.9713 47.6879C66.1876 47.7413 66.8539 47.96 66.9967 47.96L67.0683 53.9707C67.0673 54.329 69.1631 55.0456 69.6114 55.0456C70.1718 55.0456 70.8807 55.3052 70.8807 55.3052C70.8807 55.3052 71.1059 59.9847 71.1059 61.4946C71.0851 61.8273 71.4323 62.9225 71.4323 62.9225C71.4323 62.9225 75.0899 62.9875 75.1376 63.2069C75.2443 63.6983 75.182 68.3109 75.1375 70H35.7182L35.7182 17.8989Z" fill="#1A3FA3"/>
<path d="M29.2882 12.0217H37.9208V18.2847C37.9208 18.4574 37.0189 18.6222 33.4112 17.8993C29.8036 17.1764 29.1593 13.6797 29.2882 12.0217Z" fill="#1A3FA3"/>
<path d="M46.1779 12.0217L37.9208 12.0217V18.2847C37.9208 18.4574 38.7833 18.6222 42.2341 17.8993C45.6849 17.1764 46.3012 13.6797 46.1779 12.0217Z" fill="#1A3FA3"/>
<path d="M37.4662 9.06564C38.7886 9.21247 40.16 8.39266 40.6804 7.9644C41.3617 7.5057 41.9662 5.3947 42.1498 4.20169C42.3335 3.00869 40.6804 0.714591 39.8539 0.347512C39.0274 -0.019567 36.9152 -0.203107 35.905 0.347512C34.8948 0.898131 33.609 1.81583 33.1499 3.46768C32.6907 5.11954 33.7009 6.77139 34.1601 7.32201C34.6192 7.87263 35.8131 8.8821 37.4662 9.06564Z" fill="#1A3FA3"/>
</svg>
