<svg width="70" height="70" viewBox="0 0 70 70" fill="none" xmlns="http://www.w3.org/2000/svg">
<path d="M35.0768 0.525737C35.2675 0.719134 35.3678 3.8666 35.4976 4.85332C35.7433 6.72217 36.0677 6.53864 36.86 7.62996C38.7277 10.1974 36.17 12.8931 38.3468 15.3915C40.2869 17.2014 41.8792 17.655 41.9186 20.2679C41.9481 22.2532 38.2795 24.5443 41.9186 22.8235C44.5511 21.5782 43.1788 19.3525 44.8224 17.6948C46.0079 16.5008 49.6725 17.6254 51.0153 16.5124C52.1772 15.5494 51.963 13.2087 52.771 12.07C54.1885 10.0689 56.6184 10.0001 59.3688 10.0001C59.4632 10.5033 59.3668 11.0739 59.0758 11.3798C57.6077 13.9434 56.5893 12.0723 55.8442 15.0364C55.6555 15.7863 56.0565 19.0264 55.8442 19.7664C54.9929 22.7088 51.6287 22.1704 51.0153 25.4957C50.7597 26.883 50.6181 28.6295 49.6882 30.0346C49.1554 30.8378 47.5747 31.3173 46.5057 31.3173C46.3091 32.1067 48.9569 31.2421 50.2152 31.1138C51.4931 30.0346 52.5689 30.001 54.0748 30.0346C55.5808 30.0681 57.5679 32.8128 59.068 32.9885C61.7811 33.3082 63.749 31.1551 66.9399 32.2978C68.0704 32.6335 70.1837 33.3836 69.9872 34.7608C68.0861 35.0746 66.419 34.9482 64.4687 35.258C62.7504 35.5304 62.8113 36.9353 60.1572 38.0207C58.0929 39.4021 56.1446 38.1652 54.3575 38.4217C51.9845 38.7631 52.9813 41.6137 49.9123 41.5545C49.0945 41.5387 48.6192 41.8999 47.4641 41.3819L46.7637 41.2955C46.8738 41.5422 48.4594 41.8999 49.6882 42.5659C50.9169 43.232 51.8863 43.3495 52.771 44.9279C54.0748 48.0854 52.2912 49.2558 54.3575 51.3437C55.5528 52.5514 58.5136 52.8928 59.5674 54.3788C60.6565 55.9147 60.635 56.8672 60.1572 59.5275C59.5339 60.1136 57.3536 57.5381 57.0116 57.1631C55.2303 55.2094 53.1307 55.8964 51.2118 55.1544C49.0217 54.3058 50.0155 52.2159 48.1399 51.3437C46.2644 50.4714 45.9773 51.7412 42.586 49.8458C39.6852 47.4283 41.0009 48.8809 42.2788 50.657C43.5567 52.4331 42.1879 52.9932 41.8733 56.0777C41.7161 57.621 38.2976 59.5257 38.3468 61.3136C38.392 62.9891 38.9047 64.1768 38.6294 66.0437C38.5449 66.616 36.0107 69.9078 35.6785 69.9907C35.4013 70.0578 35.2086 69.748 35.183 69.5013C35.128 68.9724 35.1555 66.8923 35.183 66.0437C35.2243 64.8083 35.4465 63.3659 34.7368 62.3535C34.5244 62.0515 33.4058 61.272 33.2623 60.7747C32.7314 58.9375 33.5041 56.9068 33.3743 55.1544C33.1797 52.5238 29.3076 52.0276 29.4138 48.6096C29.4767 46.6046 30.5319 45.2696 29.4138 46.4881C28.1236 47.8942 29.9317 50.657 25.6661 53.1238C24.1542 54.5052 20.1117 52.5613 18.6667 54.0946C17.3691 55.4741 17.5066 58.5291 15.6134 59.5316L13.2542 60.5184H11.302L10.6139 60.3169C10.0595 59.8156 13.4704 57.3253 13.7457 57.0648C13.9246 56.8971 14.5053 55.8808 14.827 54.9927C15.2202 53.9073 15.1514 52.6404 15.3185 51.7365C15.7707 49.3072 19.5435 49.2538 20.4262 46.783C21.2932 44.3616 19.6191 43.1293 21.943 41.1598C22.4816 40.702 23.8598 40.0298 23.8598 39.8278C23.8598 39.6258 22.6775 40.5123 21.6099 40.8823C20.2946 40.8172 18.6667 42.2452 16.1954 41.9739C12.7765 40.9132 12.344 37.0303 10.1185 37.0145C8.16231 36.9987 6.69175 39.3568 4.42101 39.0075C3.92361 38.9305 0.180279 36.9357 0.0819783 36.245C-0.212938 35.4556 0.367068 35.207 0.573499 35.061C1.45417 34.438 4.40124 35.1478 5.58675 34.9623C7.42103 34.6742 7.66491 32.9885 9.53261 32.1991C12.5799 30.5217 14.5027 32.5074 16.7046 31.9036C18.2322 31.4832 18.2125 28.6038 21.0337 28.6038C24.5725 28.9492 24.081 30.4293 23.5158 28.6038C22.0658 26.2357 18.4602 27.6724 17.0427 24.5089C16.1954 22.6179 16.1875 20.4259 15.8238 19.674C14.6855 17.3256 12.1435 18.685 10.7122 16.4116C9.91795 15.1505 9.54638 13.3964 9.86487 11.4269C10.1834 9.45736 13.15 12.4749 13.6474 13.0571C15.5092 15.2338 15.4306 15.2509 18.2125 15.8809C21.4269 16.6089 20.8371 19.2673 22.6891 20.2679C24.7377 21.373 28.3925 17.6948 29.9653 20.9506C30.4705 23.3316 31.2117 23.4422 31.3415 23.3316C31.4712 23.2211 32.0925 22.6932 32.1731 22.4683C33.221 21.3453 29.067 18.0869 31.7348 13.5502C32.0336 12.4075 33.0893 11.8729 33.221 10.6947C33.3586 9.44947 32.4135 9.00206 32.1231 7.81108C31.6658 5.94811 31.4269 5.34021 32.1416 3.48551C32.3311 2.99548 33.5375 0.66575 33.8127 0.330265C33.9837 0.121081 34.5853 -0.0801975 34.6974 0.0322887L35.0768 0.525737Z" fill="#1A3FA3"/>
</svg>
