<svg width="70" height="70" viewBox="0 0 70 70" fill="none" xmlns="http://www.w3.org/2000/svg">
<path d="M44.9238 56.1248C43.5366 50.7498 39.4228 43.5011 39.8019 50.1248C40.0563 53.2831 42.0427 57.6248 42.4082 59.9945C42.4431 60.5129 42.488 61.4249 42.1239 61.2617C41.6749 61.2041 40.4676 57.5946 40.0087 55.3099C38.8214 50.2797 37.3574 44.55 36.7488 39.1646C36.0425 32.9149 34.3399 30.8951 33.2274 36.2901C32.6587 38.882 32.9011 43.8693 32.3324 46.25C32.078 47.3155 31.7836 47.9587 31.4344 48.3715C30.7759 49.1683 31.2836 48.9645 30.4306 50.1645C28.6597 53.2076 27.3676 57.7962 25.5168 60.9833C23.8008 64.5351 20.3686 70.1032 23.8806 69.988C25.5318 70.0072 27.0833 69.988 28.9789 69.988C35.0301 69.9496 43.1016 70.0648 48.7786 69.94C49.2875 69.9112 49.936 69.5464 49.7165 68.3656C49.2775 65.6681 46.4124 59.7539 45.0305 56.3748L44.9657 56.2212L44.9238 56.1248Z" fill="#1A3FA3"/>
<path d="M69.4362 67.3842C66.7607 64.4614 65.3426 63.1276 62.5455 60.3302C55.1131 49.9048 54.3919 46.0969 45.5968 34.5407C42.2522 27.8835 39.1554 28.4255 39.7747 32.6563C39.9427 35.4826 41.7082 39.8441 42.4263 42.4486C43.7467 47.0788 44.9049 50.2235 46.9376 54.6415C49.2193 59.6382 52.3755 65.7057 54.4255 68.0883C56.3945 70.471 58.7573 69.8247 61.2243 69.9501C63.0022 69.6607 72.2391 71.1076 69.4941 67.471L69.4362 67.3938V67.3842Z" fill="#1A3FA3"/>
<path d="M29.646 40.6507C29.343 40.9378 25.7317 47.425 25.2803 46.2577C25.1566 46.0089 25.3112 45.1191 25.3731 44.8512C26.1522 41.8659 29.949 35.8379 30.9446 32.1254C30.9879 29.6281 27.9094 29.6218 26.8512 32.1256C25.0765 35.4075 20.8405 40.2173 19.0472 43.4514C15.5657 49.6229 12.0345 56.9635 7.29779 60.6856C5.02835 62.36 4.53998 64.1791 2.48697 65.5186C1.31824 66.418 -0.308084 67.1069 0.0505736 69.1258C0.0581343 69.1684 0.0951695 69.2035 0.132272 69.2418L0.529088 69.9893C4.6919 69.9607 15.2303 70.0465 15.7845 69.9607C20.8649 65.4443 30.1655 45.8941 29.677 40.689L29.6646 40.6699L29.646 40.6507Z" fill="#1A3FA3"/>
<path d="M38.4081 25.7328C38.4081 26.2469 38.3081 26.3749 37.9677 26.5361L36.0672 27.2499L34.4666 27.6249L34.2532 27.3749C33.9615 26.9999 34.3348 25.7646 34.7752 23.9652C35.3256 21.716 34.7752 23.0012 33.7844 19.7881C32.7936 16.5749 33.1861 15.7136 33.1861 13.625C33.1861 11.5365 28.6725 14.107 29.5532 7.03801C30.4339 -0.0309726 36.2063 0.348663 40.1695 0.0273459C44.1326 -0.293972 44.1889 2.27111 47.2714 4.84165C50.3539 7.41219 48.1521 11.75 47.2714 11.75C46.3907 11.75 45.0696 15.1238 44.8495 17.6944C44.6293 20.2649 39.3989 20.7523 38.7383 20.7523C38.0778 20.7523 38.4081 25.0901 38.4081 25.7328Z" fill="#1A3FA3"/>
</svg>
