<svg width="71" height="71" viewBox="0 0 71 71" fill="none" xmlns="http://www.w3.org/2000/svg">
<path d="M70.2274 27.6382C67.9868 23.723 64.7175 36.4095 58.0593 35.7158C49.6388 34.5675 51.3771 36.4494 39.2648 33.9535C39.1691 33.9296 39.0734 33.9137 38.9697 33.8977C37.1597 33.6186 23.2532 31.9282 26.658 29.4722C28.7312 29.1533 30.7965 28.1565 32.8538 27.8376C33.4757 27.7419 33.9701 27.3751 34.1535 26.8568C34.8233 25.0068 37.048 24.7517 37.6461 22.7901C37.8215 22.216 37.5265 21.6578 36.9523 21.4505C32.0484 19.6643 29.3452 20.4458 28.9146 14.3617C28.8588 13.6919 28.2369 13.1496 27.5033 13.2533C26.8813 13.341 26.4826 13.8195 26.0759 14.2979C25.4061 15.0714 24.1702 14.9677 23.7236 14.1623C22.2325 11.5389 19.3938 13.8115 18.0143 16.4827L17.7751 17.1127C14.0274 30.2138 6.10929 42.98 1.81136 58.0826C1.54024 58.9517 0.758801 61.91 0.120889 64.5414C-0.620684 67.5954 2.17816 69.7245 5.00092 68.3769C5.1285 68.3131 5.25608 68.2493 5.36772 68.1775C5.83818 67.8984 6.18105 67.436 6.30864 66.9894C7.38511 63.3055 10.1042 55.6027 11.2764 52.134C12.2572 49.2076 15.3351 47.1663 18.126 48.1551C18.2535 48.2029 18.3652 48.2747 18.4609 48.3783C18.5964 48.5219 18.7399 48.6654 18.8835 48.8089C19.1227 49.0481 19.1785 49.407 19.0509 49.7738C17.5997 53.8245 14.6493 62.1014 13.4134 66.6465C13.1662 67.5476 13.8599 67.7629 14.9125 67.9303C15.965 68.0978 20.566 68.9909 21.1481 66.2797C22.2245 61.2482 24.3855 48.9764 30.4456 49.7738C31.0118 49.8455 31.5779 49.9253 32.1202 50.0608C32.4232 50.1406 32.6624 50.324 32.782 50.5632C35.7323 56.2406 22.1608 70.1869 34.8552 69.6208C35.5569 69.5809 36.1629 69.0706 36.2825 68.4327C37.1198 64.0311 39.8708 56.1609 41.2104 52.2776C41.2582 52.142 41.7207 51.847 42.1035 51.4961C42.55 51.0895 43.156 50.922 43.7461 51.0655C44.7109 51.2968 45.6758 51.52 46.6486 51.7353C47.1908 51.855 47.5497 52.2297 47.5337 52.7002C47.0393 57.8354 39.5678 73.4802 49.7823 69.9238C50.3086 69.7324 50.7073 69.3098 50.803 68.8394C51.6961 64.7248 53.1792 55.4352 54.9494 53.4099C55.4757 52.8118 55.9781 52.2058 56.3688 51.528C56.4804 51.3287 56.5681 51.1214 56.6399 50.9061C57.8041 47.549 58.9683 44.1761 60.1325 40.7792C60.3398 40.1652 61.1053 39.5034 61.791 39.2402C65.3315 37.9804 71.3757 29.6636 70.2274 27.6302V27.6382Z" fill="#1A3FA3"/>
</svg>
